<?xml version="1.0" standalone="no"?>
<!DOCTYPE svg PUBLIC "-//W3C//DTD SVG 20010904//EN"
 "http://www.w3.org/TR/2001/REC-SVG-20010904/DTD/svg10.dtd">
<svg version="1.0" xmlns="http://www.w3.org/2000/svg" width="500.000000pt" height="500.000000pt" viewBox="0 0 500.000000 500.000000" preserveAspectRatio="xMidYMid meet">
<metadata>
Created by potrace 1.14, written by Peter Selinger 2001-2017
</metadata>
<g transform="translate(0.000000,500.000000) scale(0.100000,-0.100000)" fill="#000000" stroke="none">
<path d="M750 3390 l0 -30 1680 0 1680 0 0 30 0 30 -1680 0 -1680 0 0 -30z"></path>
<path d="M137 3003 c-4 -3 -7 -228 -7 -500 l0 -493 75 0 75 0 1 308 1 307 52
-305 52 -305 76 -3 c74 -3 78 -2 82 20 3 13 25 154 50 313 l44 290 1 -312 1
-313 80 0 80 0 -2 498 -3 497 -104 3 c-57 1 -108 -1 -112 -5 -4 -4 -29 -150
-55 -323 -26 -173 -50 -318 -53 -322 -4 -4 -31 141 -60 322 l-53 330 -108 0
c-58 0 -110 -3 -113 -7z"></path>
<path d="M1190 3004 c0 -11 -150 -947 -155 -971 -5 -22 -3 -23 69 -23 83 0 79
-3 91 80 3 25 8 58 11 73 l6 28 91 -3 c73 -2 92 -6 94 -18 1 -8 7 -48 13 -87
l12 -73 79 0 c67 0 79 3 79 16 0 21 -149 955 -155 972 -3 9 -37 12 -120 12
-63 0 -115 -3 -115 -6z m144 -426 c16 -106 31 -205 33 -220 l6 -28 -73 0 c-70
0 -72 1 -67 23 3 12 18 111 33 220 16 108 31 197 35 197 3 0 18 -87 33 -192z"></path>
<path d="M1778 2998 c-3 -7 -4 -40 -3 -73 l1 -60 82 -3 82 -3 0 -424 0 -425
80 0 80 0 0 425 0 425 79 0 c67 0 79 3 83 18 4 14 3 91 -1 125 -1 4 -109 7
-240 7 -182 0 -240 -3 -243 -12z"></path>
<path d="M2499 2993 c-1 -22 -1 -928 0 -960 1 -22 5 -23 81 -23 l80 0 0 210 0
210 85 0 85 0 0 -210 0 -210 83 0 82 0 -1 493 c-1 270 -2 495 -3 500 0 4 -37
7 -81 7 l-80 0 0 -215 0 -215 -85 0 -85 0 0 215 0 215 -80 0 c-69 0 -80 -2
-81 -17z"></path>
<path d="M3277 3004 c-4 -4 -7 -229 -7 -501 l0 -493 85 0 85 0 -2 498 -3 497
-75 3 c-42 1 -79 0 -83 -4z"></path>
<path d="M3717 3004 c-4 -4 -7 -229 -7 -501 l0 -493 220 0 221 0 -3 73 -3 72
-130 1 -130 0 -3 142 -3 142 106 0 105 0 0 75 0 75 -105 0 -105 0 0 135 0 135
135 0 136 0 -3 73 -3 72 -211 3 c-115 1 -213 -1 -217 -4z"></path>
<path d="M4402 2583 c3 -427 3 -428 27 -476 29 -59 77 -93 153 -108 111 -22
217 22 259 108 24 48 24 49 27 476 l3 427 -76 0 -75 0 0 -387 c0 -232 -4 -403
-10 -425 -12 -42 -51 -61 -97 -49 -52 14 -53 24 -53 459 l0 402 -80 0 -81 0 3
-427z"></path>
<path d="M1929 1710 c-1 -11 -1 -42 -1 -70 0 -72 -1 -70 31 -70 36 0 44 11 47
68 4 65 -9 92 -46 92 -23 0 -30 -5 -31 -20z m51 -60 c0 -47 -3 -60 -15 -60
-12 0 -15 13 -15 60 0 47 3 60 15 60 12 0 15 -13 15 -60z"></path>
<path d="M2040 1650 l0 -80 41 0 c24 0 38 4 34 10 -3 6 -15 10 -26 10 -14 0
-19 7 -19 25 0 18 5 25 20 25 11 0 20 5 20 10 0 6 -9 10 -20 10 -15 0 -20 7
-20 25 0 18 5 25 20 25 11 0 20 5 20 10 0 6 -16 10 -35 10 l-35 0 0 -80z"></path>
<path d="M2150 1720 c0 -5 5 -41 12 -80 10 -56 16 -70 30 -70 10 0 18 1 18 3
0 9 22 124 26 140 3 11 0 17 -10 17 -10 0 -17 -16 -22 -57 -8 -61 -10 -59 -29
30 -5 25 -25 39 -25 17z"></path>
<path d="M2270 1650 l0 -80 41 0 c24 0 38 4 34 10 -3 6 -15 10 -26 10 -14 0
-19 7 -19 25 0 18 5 25 20 25 11 0 20 5 20 10 0 6 -9 10 -20 10 -15 0 -20 7
-20 25 0 18 5 25 20 25 11 0 20 5 20 10 0 6 -16 10 -35 10 l-35 0 0 -80z"></path>
<path d="M2380 1650 l0 -80 35 0 c19 0 35 5 35 10 0 6 -9 10 -19 10 -24 0 -27
11 -26 83 1 41 -3 57 -12 57 -10 0 -13 -21 -13 -80z"></path>
<path d="M2492 1718 c-14 -14 -16 -116 -3 -136 5 -8 21 -12 37 -10 28 3 29 6
32 57 4 76 -3 101 -31 101 -13 0 -28 -5 -35 -12z m43 -68 c0 -34 -5 -55 -12
-57 -10 -4 -13 12 -13 57 0 45 3 61 13 58 7 -3 12 -24 12 -58z"></path>
<path d="M2600 1651 c0 -47 4 -81 10 -81 6 0 10 14 10 30 0 23 4 30 20 30 25
0 40 34 30 70 -5 19 -14 26 -38 28 l-32 3 0 -80z m50 29 c0 -20 -5 -30 -15
-30 -10 0 -15 10 -15 30 0 20 5 30 15 30 10 0 15 -10 15 -30z"></path>
<path d="M2710 1650 l0 -80 35 0 c19 0 35 5 35 10 0 6 -9 10 -20 10 -11 0 -20
3 -21 8 0 4 -2 15 -4 25 -2 11 3 17 16 17 10 0 19 5 19 10 0 6 -6 10 -14 10
-8 0 -17 4 -20 9 -10 16 5 41 25 41 10 0 19 5 19 10 0 6 -16 10 -35 10 l-35 0
0 -80z"></path>
<path d="M2820 1650 c0 -47 4 -80 10 -80 6 0 10 14 10 30 0 20 5 30 15 30 10
0 15 -10 15 -30 0 -20 5 -30 15 -30 17 0 20 36 6 59 -6 9 -6 22 0 32 5 11 5
27 -1 43 -7 20 -16 26 -40 26 l-30 0 0 -80z m50 35 c0 -16 -6 -25 -15 -25 -9
0 -15 9 -15 25 0 16 6 25 15 25 9 0 15 -9 15 -25z"></path>
<path d="M757 1663 c-4 -3 -7 -17 -7 -30 l0 -23 540 0 540 0 0 30 0 30 -533 0
c-294 0 -537 -3 -540 -7z"></path>
<path d="M3039 1665 c-1 -3 -2 -15 -2 -27 l-1 -23 537 -3 537 -2 0 30 0 30
-535 0 c-294 0 -535 -2 -536 -5z"></path>
</g>
</svg>
